<?xml version="1.0" standalone="no"?>
<!DOCTYPE svg PUBLIC "-//W3C//DTD SVG 1.1//EN" "http://www.w3.org/Graphics/SVG/1.1/DTD/svg11.dtd" >
<svg xmlns="http://www.w3.org/2000/svg">
<metadata>
<json>
<![CDATA[
{
	"fontFamily": "bbcat-icon",
	"majorVersion": 1,
	"minorVersion": 7,
	"designer": "Kristian Hentschel",
	"copyright": "BBC R&D",
	"license": "",
	"fontURL": "https://github.com/bbc/audio-orchestration",
	"version": "Version 1.7",
	"fontId": "bbcat-icon",
	"psName": "bbcat-icon",
	"subFamily": "Regular",
	"fullName": "bbcat-icon",
	"description": "Font generated by IcoMoon."
}
]]>
</json>
</metadata>
<defs>
<font id="bbcat-icon" horiz-adv-x="1024">
<font-face units-per-em="1024" ascent="960" descent="-64" />
<missing-glyph horiz-adv-x="1024" />
<glyph unicode="&#x20;" horiz-adv-x="512" d="" />
<glyph unicode="&#xe900;" glyph-name="bbcrd" data-tags="bbcrd" horiz-adv-x="4864" d="M184 823.732v-751.732h752.038v751.732h-752.038zM708.31 293.476c-12.86-18.211-31.078-32.137-54.923-42.046s-52.243-14.729-85.733-14.729h-168.519v422.866h158.874c46.885 0 83.054-9.373 108.774-28.12s38.58-45.527 38.58-80.61c0-20.085-4.555-37.493-13.932-52.222-9.109-14.729-22.773-26.513-40.723-35.083 24.916-8.302 43.938-21.425 57.334-39.368 13.128-17.943 19.826-39.635 19.826-65.345-0.268-25.709-6.698-47.402-19.558-65.345zM600.876 499.954c11.788 9.641 17.414 23.031 17.414 40.439 0 33.476-22.773 50.348-68.318 50.348h-65.103v-105.248h65.103c22.237 0 39.116 4.821 50.904 14.462zM560.957 419.345h-75.82v-114.085h74.748c25.72 0 45.546 4.821 59.209 14.462 13.932 9.641 20.629 23.567 20.629 41.778 0 38.564-26.256 57.846-78.767 57.846zM1123.847 823.732v-751.732h752.038v751.732h-752.038zM1648.425 293.476c-12.86-18.211-31.078-32.137-54.923-42.046s-52.243-14.729-85.733-14.729h-168.519v422.866h158.874c46.885 0 83.054-9.373 108.774-28.12s38.58-45.527 38.58-80.61c0-20.085-4.555-37.493-13.932-52.222s-22.773-26.513-40.723-35.083c24.916-8.302 43.938-21.425 57.334-39.368 13.128-17.943 19.826-39.635 19.826-65.345-0.268-25.709-6.698-47.402-19.558-65.345zM1540.723 499.954c11.788 9.641 17.414 23.031 17.414 40.439 0 33.476-22.773 50.348-68.318 50.348h-65.103v-105.248h65.103c22.237 0 39.116 4.821 50.904 14.462zM1500.804 419.345h-75.82v-114.085h74.748c25.72 0 45.546 4.821 59.209 14.462 13.932 9.641 20.629 23.567 20.629 41.778 0 38.564-26.256 57.846-78.767 57.846zM2063.962 72.268h752.038v751.732h-752.038v-751.732zM2604.079 263.481c-17.414-9.641-37.776-17.407-60.817-22.764-23.041-5.624-47.421-8.302-72.873-8.302-33.757 0-64.3 4.821-91.359 14.729s-49.832 24.103-68.586 42.581c-18.754 18.479-32.954 41.242-42.866 68.023s-15.003 57.043-15.003 90.786c0 32.94 5.090 62.399 15.539 88.912s25.184 49.276 44.742 68.023c19.558 19.014 42.866 33.476 70.194 43.385 27.327 10.177 57.87 14.997 91.627 14.997 23.577 0 45.546-2.41 66.443-7.231s40.187-11.783 58.138-21.157v-82.217c-16.343 10.712-34.025 19.014-53.047 24.638s-39.116 8.302-60.281 8.302c-28.935 0-53.851-5.356-74.213-16.336-20.629-10.712-36.169-26.513-47.153-46.866s-16.343-45.527-16.343-74.718c0-29.459 5.358-54.365 15.807-74.986s25.988-36.422 46.081-47.134c20.094-10.712 44.474-16.336 73.141-16.336 43.67 0 84.125 11.516 121.098 34.279v-80.61h-0.268zM3096 162.189v564.426h205.909c74.267 0 131.106-15.552 170.787-46.656s59.521-75.614 59.521-133.264c0-37.271-8.848-69.179-26.543-95.456s-42.63-46.656-75.339-60.867c23.594-37.271 47.188-74.81 70.245-112.349s46.383-76.151 69.441-115.567h-139.686c-37.804 69.447-77.216 137.822-117.701 205.124-4.29 0-8.043 0-11.797 0h-85.259v-205.124h-119.578v-0.268zM3215.846 463.038h78.825c37.267 0 65.687 6.703 85.259 20.11s29.224 34.59 29.224 63.548c0 29.495-9.652 50.946-28.956 64.353s-47.456 20.11-84.723 20.11h-79.629v-168.121zM3787.726 152c-42.093 0-78.825 6.435-110.194 19.038s-55.499 30.836-72.122 54.432c-16.891 23.596-25.202 52.018-25.202 85.267 0 31.104 9.116 58.722 27.615 82.854s47.188 47.192 86.064 68.643c-13.137 16.356-23.594 31.64-31.637 45.851-7.775 14.211-13.674 28.154-17.427 42.365-3.754 13.943-5.63 28.422-5.63 43.706 0 28.422 6.703 53.359 20.645 74.542 13.674 21.183 32.978 37.807 57.644 49.605s53.086 17.697 85.259 17.697c31.101 0 58.18-5.631 81.774-16.893 23.326-11.262 41.557-27.082 54.427-47.46s19.304-43.438 19.304-69.983c0-31.104-9.92-58.722-29.492-83.39-19.84-24.4-51.209-47.996-94.375-70.52 16.891-17.965 35.123-36.735 54.963-56.845s41.021-41.025 63.542-63.012c17.963 33.249 27.615 75.078 29.224 125.488h102.687c-1.072-38.88-6.971-74.81-17.695-107.254-10.724-32.713-25.739-61.671-44.506-86.876 15.819-15.284 32.173-30.836 49.064-46.924s34.586-32.713 52.818-50.141h-142.099c-11.529 10.457-22.521 21.183-33.246 31.64-21.985-13.675-46.651-24.132-73.731-31.104s-56.84-10.725-87.672-10.725zM3697.641 320.926c0-24.132 8.848-43.438 26.811-57.113 17.963-13.943 42.63-20.915 74.267-20.915 31.101 0 58.716 5.899 82.846 17.429-30.028 29.495-55.767 55.772-77.216 78.832s-40.753 43.974-57.644 62.476c-18.5-10.994-31.101-22.792-38.34-35.126-7.239-12.602-10.724-27.618-10.724-45.583zM3740.271 593.352c0-9.385 1.072-18.233 3.217-26.545 2.145-8.044 6.167-17.161 12.333-26.814s14.746-21.451 26.543-35.126c26.275 12.602 45.311 25.741 57.108 39.148s17.695 29.495 17.695 48.533c0 18.501-5.094 32.981-15.282 43.438s-24.13 15.82-41.557 15.82c-17.963 0-32.441-5.363-43.434-16.088s-16.623-24.937-16.623-42.365zM4181.85 726.615h215.561c60.057 0 110.998-10.994 153.091-33.249s74.267-54.163 96.252-95.993c21.985-41.829 33.246-92.507 33.246-152.033s-11.261-110.472-33.514-152.837c-22.253-42.365-54.695-74.81-96.788-97.065s-93.035-33.517-153.091-33.517h-214.757v564.694zM4390.172 266.494c53.086 0 93.571 15.284 121.454 46.119s41.825 75.078 41.825 132.995c0 57.381-13.942 101.087-41.557 131.387s-68.1 45.315-121.186 45.315h-87.672v-356.084h87.136v0.268z" />
<glyph unicode="&#xe901;" glyph-name="copy" data-tags="copy" d="M704 896v-128h-64v64h-448v-624h63.149v-64h-127.149v752zM896 704h-576v-704h576v704zM832 640v-576h-448v576h448zM768 544v-64h-320v64zM768 384v-64h-320v64zM768 224v-64h-320v64z" />
<glyph unicode="&#xe902;" glyph-name="paste" data-tags="paste" d="M756 896l0.006-66.088c42.65-9.041 74.839-46.4 75.964-91.473l0.030-2.44v-640c0-52.204-41.668-94.675-93.56-95.97l-2.44-0.030h-448c-52.204 0-94.675 41.668-95.97 93.56l-0.030 2.44v640c0 44.733 30.595 82.32 72.002 92.976l-0.002 67.024h492zM742.736 767.29l-0.23-0.397c-16.751-28.082-47.432-46.892-82.506-46.892v0h-300c-34.843 0-65.35 18.562-82.172 46.337-12.207-4.080-21.129-15.324-21.788-28.74l-0.039-1.597v-640c0-17.138 13.472-31.129 30.403-31.961l1.597-0.039h448c17.138 0 31.129 13.472 31.961 30.403l0.039 1.597v640c0 15.362-10.825 28.196-25.264 31.29zM672 320v-64h-320v64h320zM672 448v-64h-320v64h320zM672 576v-64h-320v64h320zM692 832h-364v-16c0-17.138 13.472-31.129 30.403-31.961v0l1.597-0.039h300c17.673 0 32 14.327 32 32v0 16z" />
<glyph unicode="&#xe903;" glyph-name="share" data-tags="share" d="M768 928c70.692 0 128-57.308 128-128s-57.308-128-128-128c-27.726 0-53.394 8.816-74.352 23.797l-314.631-220.311c3.245-11.268 4.983-23.174 4.983-35.486 0-9.871-1.117-19.48-3.232-28.71l312.88-219.087c20.958 14.981 46.626 23.797 74.352 23.797 70.692 0 128-57.308 128-128s-57.308-128-128-128c-70.692 0-128 57.308-128 128 0 7.891 0.714 15.616 2.081 23.112l-316.361 221.524c-20.059-13.053-44.004-20.636-69.72-20.636-70.692 0-128 57.308-128 128s57.308 128 128 128c23.158 0 44.88-6.15 63.621-16.906l322.46 225.794c-1.367 7.497-2.081 15.221-2.081 23.112 0 70.692 57.308 128 128 128z" />
<glyph unicode="&#xe904;" glyph-name="metronome" data-tags="metronome" d="M544 896l240-896h-544l128.031 477.984-62.94 193.717-45.651-14.833-19.777 60.868 45.651 14.833-29.666 91.301 30.434 9.889 29.666-91.301 45.651 14.833 19.777-60.868-45.651-14.833 47.706-146.845-15.2-56.76 107.203-329.923c-15.792-11.182-26.284-29.203-27.040-49.679l-0.044-2.373c0-35.346 29.005-64 64.785-64s64.785 28.654 64.785 64c0 35.346-29.005 64-64.785 64v0l-1.981-0.029c-1.96-0.058-3.898-0.202-5.81-0.429v0l-20.947 64.455 59.801-0.006v32h-64l-0.001-19.058-96.768 297.802 96.769 361.256h64zM544 320h-64v-32h64v32zM544 384h-64v-32h64v32zM544 448h-64v-32h64v32zM544 512h-64v-32h64v32zM544 576h-64v-32h64v32zM544 640h-64v-32h64v32zM544 704h-64v-32h64v32zM544 768h-64v-32h64v32zM544 832h-64v-32h64v32z" />
<glyph unicode="&#xe905;" glyph-name="replay" data-tags="replay" d="M896 448c0-212.077-171.923-384-384-384s-384 171.923-384 384c0 212.077 171.923 384 384 384v0-128c-141.385 0-256-114.615-256-256s114.615-256 256-256c141.385 0 256 114.615 256 256zM544 896v-256l192 128z" />
<glyph unicode="&#xe906;" glyph-name="check" data-tags="check" d="M848.477 864l95.523-72.333-548.071-759.667-315.929 359.629 88.291 81.408 218.589-248.829z" />
<glyph unicode="&#xe907;" glyph-name="cog" data-tags="cog" d="M512 896c33.426 0 65.998-3.661 97.335-10.603l5.344-195.564 95.588-69.449 187.625 55.332c32.645-55.202 53.783-118.016 60.111-185.14l-184.277-65.499-36.512-112.371 110.571-161.282c-43.161-48.831-96.809-88.176-157.418-114.51l-119.291 155.085h-118.154l-119.294-155.084c-60.604 26.333-114.248 65.674-157.408 114.5l110.563 161.29-36.512 112.371-184.276 65.507c6.329 67.121 27.466 129.932 60.11 185.132l187.625-55.332 95.588 69.449 5.348 195.565c31.336 6.942 63.906 10.602 97.331 10.602zM512 568c-66.274 0-120-53.726-120-120s53.726-120 120-120c66.274 0 120 53.726 120 120s-53.726 120-120 120z" />
<glyph unicode="&#xe908;" glyph-name="cross" data-tags="cross" d="M919.294 764.784l-316.784-316.784 316.784-316.784-90.51-90.51-316.784 316.784-316.784-316.784-90.51 90.51 316.784 316.784-316.784 316.784 90.51 90.51 316.784-316.784 316.784 316.784 90.51-90.51z" />
<glyph unicode="&#xe909;" glyph-name="desktop" data-tags="desktop" d="M928 224l96-192h-1024l96 192h832zM896 832c17.673 0 32-14.327 32-32v-544h-832v544c0 17.673 14.327 32 32 32h768zM896 800h-768v-480h768v480z" />
<glyph unicode="&#xe90a;" glyph-name="down" data-tags="down" d="M512 256l-448 285.068 64.253 98.932 383.747-244.186 383.747 244.186 64.253-98.932z" />
<glyph unicode="&#xe90b;" glyph-name="help" data-tags="help" d="M512 896c247.424 0 448-200.576 448-448s-200.576-448-448-448c-247.424 0-448 200.576-448 448s200.576 448 448 448zM576 312h-144v-120h144v120zM518.429 704c-64.869 0-112.999-14.852-144.391-44.555-30.469-28.83-48.333-66.611-53.594-113.345l-0.444-4.273 134.834-16.388c3.012 26.63 9.904 45.295 20.677 55.992s24.384 16.047 40.833 16.047c15.29 0 26.7-3.471 34.23-10.413s11.294-16.672 11.294-29.191c0-12.519-9.383-26.289-28.148-41.311-35.214-28.679-57.861-48.709-67.938-60.089s-17.665-23.956-22.762-37.726c-4.778-12.91-7.317-29.47-7.615-49.682l-0.030-4.091v-12.974h132.054c0 17.754 3.070 32.15 9.209 43.189s20.909 25.663 44.308 43.872c33.593 25.948 55.833 47.912 66.722 65.893s16.333 36.645 16.333 55.992c0 46.66-21.082 83.988-63.247 111.984-31.044 20.713-71.819 31.069-122.324 31.069z" />
<glyph unicode="&#xe90c;" glyph-name="left" data-tags="left" d="M320 448l285.068 448 98.932-64.253-244.186-383.747 244.186-383.747-98.932-64.253z" />
<glyph unicode="&#xe90d;" glyph-name="light" data-tags="light" d="M510.995 896c167.34 0 302.995-135.656 302.995-302.995 0-117.429-66.802-219.255-164.477-269.55l-0.006-284.498-138.512-38.957-138.512 38.957 0.001 284.494c-97.679 50.294-164.484 152.122-164.484 269.554 0 167.34 135.656 302.995 302.995 302.995zM610.856 163.221l-205.746-28.916 6.024-42.864 205.746 28.916-6.024 42.864zM610.856 269.629l-205.746-28.916 6.024-42.864 205.746 28.916-6.024 42.864zM510.995 861.372c-148.215 0-268.367-120.152-268.367-268.367s120.152-268.367 268.367-268.367c148.215 0 268.367 120.152 268.367 268.367s-120.152 268.367-268.367 268.367z" />
<glyph unicode="&#xe90e;" glyph-name="loading" data-tags="loading" d="M960 448c0-247.424-200.576-448-448-448s-448 200.576-448 448c0 247.424 200.576 448 448 448v0-128c-176.731 0-320-143.269-320-320s143.269-320 320-320c176.731 0 320 143.269 320 320z" />
<glyph unicode="&#xe90f;" glyph-name="loudspeaker" data-tags="loudspeaker" d="M800.566 896c17.45 0 31.683-13.981 31.995-31.429l14.857-832c0.316-17.67-13.753-32.251-31.424-32.566-0.19-0.003-0.381-0.005-0.571-0.005h-606.847c-17.673 0-32 14.327-32 32l0.005 0.571 14.857 832c0.312 17.448 14.545 31.429 31.995 31.429h577.133zM512 504c-123.712 0-224-100.288-224-224s100.288-224 224-224c123.712 0 224 100.288 224 224s-100.288 224-224 224zM512 808c-61.856 0-112-50.144-112-112s50.144-112 112-112c61.856 0 112 50.144 112 112s-50.144 112-112 112z" />
<glyph unicode="&#xe910;" glyph-name="minus" data-tags="minus" d="M64 512h896v-128h-896v128z" />
<glyph unicode="&#xe911;" glyph-name="mobile" data-tags="mobile" d="M736 960c35.346 0 64-28.654 64-64v-896c0-35.346-28.654-64-64-64h-448c-35.346 0-64 28.654-64 64v896c0 35.346 28.654 64 64 64h448zM512 32c-17.673 0-32-14.327-32-32s14.327-32 32-32c17.673 0 32 14.327 32 32s-14.327 32-32 32zM736 896h-448v-832h448v832z" />
<glyph unicode="&#xe912;" glyph-name="pause" data-tags="pause" d="M435.2 896v-896h-307.2v896h307.2zM896 896v-896h-307.2v896h307.2z" />
<glyph unicode="&#xe913;" glyph-name="play" data-tags="play" d="M176 896v-896l672 448z" />
<glyph unicode="&#xe914;" glyph-name="plus" data-tags="plus" d="M576 896v-384h384v-128h-384v-384h-128v384h-384v128h384v384h128z" />
<glyph unicode="&#xe915;" glyph-name="radio" data-tags="radio" d="M601.26 832l21.271-37.088-410.194-238.408 723.664-0.004c17.673 0 32-14.327 32-32v-428.5c0-17.673-14.327-32-32-32h-840c-17.673 0-32 14.327-32 32v428.5c0 17.673 14.327 32 32 32l31.256 0.004 474.004 275.496zM316 480c-94.993 0-172-77.007-172-172s77.007-172 172-172c94.993 0 172 77.007 172 172s-77.007 172-172 172z" />
<glyph unicode="&#xe916;" glyph-name="right" data-tags="right" d="M704 448l-285.068-448-98.932 64.253 244.186 383.747-244.186 383.747 98.932 64.253z" />
<glyph unicode="&#xe917;" glyph-name="tablet" data-tags="tablet" d="M832 960c35.346 0 64-28.654 64-64v-896c0-35.346-28.654-64-64-64h-640c-35.346 0-64 28.654-64 64v896c0 35.346 28.654 64 64 64h640zM512 32c-17.673 0-32-14.327-32-32s14.327-32 32-32c17.673 0 32 14.327 32 32s-14.327 32-32 32zM832 896h-640v-832h640v832z" />
<glyph unicode="&#xe918;" glyph-name="tv" data-tags="tv" d="M512 152c96.292 0 181.625-21.333 256-64v0l-32-32c-70.772 37.333-145.439 56-224 56s-153.228-18.667-224-56v0l-32 32c74.375 42.667 159.708 64 256 64zM992 808c17.673 0 32-14.327 32-32v-560c0-17.673-14.327-32-32-32h-960c-17.673 0-32 14.327-32 32v560c0 17.673 14.327 32 32 32h960zM992 776h-960v-512h960v512z" />
<glyph unicode="&#xe919;" glyph-name="up" data-tags="up" d="M512 640l448-285.068-64.253-98.932-383.747 244.186-383.747-244.186-64.253 98.932z" />
<glyph unicode="&#xe91a;" glyph-name="volume-low" data-tags="volume-low" d="M297.253 651.486l235.518 235.518c11.995 11.995 31.442 11.995 43.437 0 5.76-5.76 8.996-13.573 8.996-21.719v-834.57c0-16.963-13.751-30.715-30.715-30.715-8.146 0-15.959 3.236-21.719 8.996l-235.518 235.518h-129.253c-17.673 0-32 14.327-32 32v342.972c0 17.673 14.327 32 32 32h129.253z" />
<glyph unicode="&#xe91b;" glyph-name="volume-mute" data-tags="volume-mute" d="M576.208 887.004c5.76-5.76 8.996-13.573 8.996-21.719v-834.57c0-16.963-13.751-30.715-30.715-30.715-8.146 0-15.959 3.236-21.719 8.996l-235.518 235.518h-129.253c-17.673 0-32 14.327-32 32v342.972c0 17.673 14.327 32 32 32h129.253l235.518 235.518c11.995 11.995 31.442 11.995 43.437 0zM903.529 600l45.255-45.255-113.144-113.129 113.144-113.145-45.255-45.255-113.145 113.144-113.129-113.144-45.255 45.255 113.136 113.145-113.136 113.129 45.255 45.255 113.129-113.136 113.145 113.136z" />
<glyph unicode="&#xe91c;" glyph-name="volume" data-tags="volume" d="M584.208 887.004c5.76-5.76 8.996-13.573 8.996-21.719v-834.57c0-16.963-13.751-30.715-30.715-30.715-8.146 0-15.959 3.236-21.719 8.996l-235.518 235.518h-129.253c-17.673 0-32 14.327-32 32v342.972c0 17.673 14.327 32 32 32h129.253l235.518 235.518c11.995 11.995 31.442 11.995 43.437 0zM711.181 770.086c12.706 12.284 32.965 11.942 45.248-0.764 103.714-107.277 155.571-215.718 155.571-325.322s-51.857-218.045-155.571-325.322v0l-0.066-0.068c-12.321-12.67-32.581-12.952-45.25-0.631v0l-0.256 0.249c-0.527 0.512-1.034 1.045-1.52 1.596-10.542 11.949-9.402 30.182 2.547 40.724 96.566 85.196 144.732 179.68 144.497 283.452-0.235 103.751-48.416 198.217-144.542 283.4-0.535 0.475-1.053 0.969-1.552 1.482-11.134 11.449-10.879 29.756 0.57 40.89v0l0.256 0.249zM729.702 553.782c30.866-36.241 46.298-72.835 46.298-109.782s-15.433-73.541-46.298-109.782c-10.963-12.873-30.21-14.611-43.302-3.91-11.137 9.102-12.786 25.509-3.684 36.645 0.327 0.401 0.667 0.791 1.017 1.172 25.244 27.382 37.866 52.674 37.866 75.875s-12.622 48.493-37.866 75.875c-9.749 10.575-9.080 27.051 1.495 36.8 0.38 0.351 0.771 0.69 1.172 1.017 13.092 10.7 32.338 8.962 43.302-3.91z" />
</font>
</defs>
</svg>
